<?xml version="1.0" encoding="utf-8" ?>
<svg baseProfile="full" height="300mm" version="1.1" viewBox="0,0,200,300" width="200mm" xmlns="http://www.w3.org/2000/svg" xmlns:ev="http://www.w3.org/2001/xml-events" xmlns:xlink="http://www.w3.org/1999/xlink"><defs /><rect fill="#222222" height="300" width="200" x="0" y="0" /><text fill="#FFFFFF" style="font-size:12px; font-family:Arial; font-weight:bold;" x="10" y="20">Over 10km Runs</text><text fill="#FFFFFF" style="font-size:4px; font-family:Arial" x="10" y="280">ATHLETE</text><text fill="#FFFFFF" style="font-size:9px; font-family:Arial" x="10" y="290">FrankSun</text><text fill="#FFFFFF" style="font-size:4px; font-family:Arial" x="120" y="280">STATISTICS</text><text fill="#FFFFFF" style="font-size:3px; font-family:Arial" x="120" y="285">Number: 1</text><text fill="#FFFFFF" style="font-size:3px; font-family:Arial" x="120" y="290">Weekly: 1.0</text><text fill="#FFFFFF" style="font-size:3px; font-family:Arial" x="141" y="285">Total: 10.3 km</text><text fill="#FFFFFF" style="font-size:3px; font-family:Arial" x="141" y="290">Avg: 10.3 km</text><text fill="#FFFFFF" style="font-size:3px; font-family:Arial" x="167" y="285">Min: 10.3 km</text><text fill="#FFFFFF" style="font-size:3px; font-family:Arial" x="167" y="290">Max: 10.3 km</text><polyline fill="none" points="67.48073191335425,221.01411849923898 67.27070434764028,226.25262977340026 68.74089730717242,230.50889408501098 78.12212857464328,228.62631852546474 75.60179778607562,218.476701858046 68.39085136447102,217.65817858680384 67.13068597018719,219.54078081669286 67.13068597018719,226.33448123082053 67.69075947860256,229.85408571409062 69.02093406161293,231.0 77.91210100892931,228.87187211908167 78.19213776336983,228.05335983791156 75.60179778607562,218.5585541377659 68.04080542176962,218.06744033080759 67.48073191335425,227.8896572777885 68.95092487288639,230.67259609128814 78.19213776336983,229.1174256343511 76.931972369086,223.71523030125536 80.43243179703131,223.2241197655676 81.20253287116066,220.19559791084612 78.05211938591674,208.2450987676857 78.54218370607123,199.73230194026837 77.07199074607342,171.32835065486142 78.40216532861814,163.71558718610322 77.84209182020277,156.8394784082775 79.52231234591454,154.2199923301232 78.05211938591674,149.63587036228273 77.91210100892931,137.27497760677943 78.40216532861814,122.62174305826193 79.59232153464109,119.34723931207554 66.78064002748579,117.70998224359937 60.40980386873707,113.4530976554961 61.2499141311273,110.3422825721791 75.53178859781474,85.86464337760117 78.7522112717852,82.75371739163529 84.70299229910597,79.64277889870573 102.6953537594527,74.40327527251793 123.83812870504335,70.391756329278 128.45873515028507,71.21043535380159 134.68955293204635,74.89448024437297 137.69994804030284,79.97024669748498 138.7500858688727,85.70091074268566 139.5901961317286,82.9993172659888 138.2600215487182,78.0873049624497 135.80969994934276,74.32140774669824 131.1190843153745,70.63736012758454 124.46821140218526,69.0 115.78707202058285,70.06428447709186 114.73693419247866,71.53790672082687 105.56573049072176,73.33899676339934 99.61494946246967,76.1224913104088 101.29516998818144,86.27397481334629 101.01513323374093,116.23644792078994 98.14475650340319,117.46439338487107 92.26398466387764,117.05507844645763 79.80234910035506,118.44674835330807 77.21200912352651,121.55753086035838 77.07199074607342,148.2442565356032 76.5819264263846,152.17351266363403 73.85156807210296,153.40140111278743 76.09186210623011,153.8925559472409 77.21200912352651,158.7222285513417 76.02185291750357,177.22205159906298 76.72194480337203,208.8180721149547 77.63206425495446,214.71148764551617 80.43243179703131,220.52300624991767 77.2820183117874,222.4874533775146 75.67180697480217,218.39484956982778 67.62075029034168,218.6404064085218 67.55074110161513,227.56225205381634 69.44098919304088,230.83629806298995 77.9821101971902,228.05335983791156 76.16187129495665,218.88596316910116 68.18082379875705,218.06744033080759 67.27070434764028,219.45892864110647 67.34071353590116,226.9892925787717 68.60087893018499,230.50889408501098 77.49204587750137,228.54446731024655 77.70207344321534,227.644103372877 75.95184372924268,218.39484956982778 68.60087893018499,217.49447382893413 67.13068597018719,218.6404064085218 67.34071353590116,228.05335983791156 69.2309616273269,230.83629806298995 77.42203668877482,228.87187211908167 77.21200912352651,223.06041618413292 75.25175184337422,218.39484956982778 67.27070434764028,218.6404064085218 66.92065840447322,225.5978178026271 69.09094324987382,230.7544470813591 77.70207344321534,228.54446731024655 75.95184372924268,218.88596316910116 72.80143024399877,217.90373565920163 67.48073191335425,218.5585541377659 67.97079623304307,229.52668132074177 69.09094324987382,230.7544470813591 72.31136592430994,230.0177878587274" stroke="#4DD2FF" stroke-linecap="round" stroke-linejoin="round" stroke-width="0.5"><title>2021-04-23 10.3km</title></polyline></svg>